{"title":"rahmathulla_kasimi_niskaram.avi","uid":7485196,"size":339898406,"categoryP":"video","categoryS":"other","magnet":"?xt=urn:btih:8ccdeeca6f9c7b16ddf80f24c103f0bcadd1c40a&amp;dn=rahmathulla_kasimi_niskaram.avi&amp;tr=udp%3A%2F%2Ftracker.openbittorrent.com%3A80&amp;tr=udp%3A%2F%2Fopen.demonii.com%3A1337&amp;tr=udp%3A%2F%2Ftracker.coppersurfer.tk%3A6969&amp;tr=udp%3A%2F%2Fexodus.desync.com%3A6969","seeders":0,"leechers":0,"uploader":null,"files":1,"time":1343520185,"description":"Complete name                    : Rahmathulla_kasimi_niskaram.avi\nFormat                           : AVI\nFormat/Info                      : Audio Video Interleave\nFile size                        : 324 MiB\nDuration                         : 2h 21mn\nOverall bit rate                 : 320 Kbps\n\nVideo\nID                               : 0\nFormat                           : MPEG-4 Visual\nFormat settings, BVOP            : No\nFormat settings, QPel            : No\nFormat settings, GMC             : No warppoints\nFormat settings, Matrix          : Default (H.263)\nCodec ID                         : DX50\nCodec ID/Hint                    : DivX 5\nDuration                         : 2h 21mn\nBit rate                         : 182 Kbps\nWidth                            : 320 pixels\nHeight                           : 240 pixels\nDisplay aspect ratio             : 4:3\nFrame rate                       : 25.000 fps\nColor space                      : YUV\nChroma subsampling               : 4:2:0\nBit depth                        : 8 bits\nScan type                        : Progressive\nCompression mode                 : Lossy\nBits/(Pixel*Frame)               : 0.095\nStream size                      : 184 MiB (57%)\nTitle                            : Video \nWriting library                  : DivX 3330\n\nAudio\nID                               : 1\nFormat                           : MPEG Audio\nFormat version                   : Version 1\nFormat profile                   : Layer 3\nMode                             : Joint stereo\nCodec ID                         : 55\nCodec ID/Hint                    : MP3\nDuration                         : 2h 21mn\nBit rate mode                    : Constant\nBit rate                         : 128 Kbps\nChannel(s)                       : 2 channels\nSampling rate                    : 44.1 KHz\nCompression mode                 : Lossy\nStream size                      : 130 MiB (40%)\nAlignment                        : Split accross interleaves\nInterleave, duration             : 40 ms (1.00 video frame)\nInterleave, preload duration     : 500 ms\nTitle                            : Audio \nWriting library                  : LAME3.92","torrent":{"xt":"urn:btih:8ccdeeca6f9c7b16ddf80f24c103f0bcadd1c40a","amp;dn":"rahmathulla_kasimi_niskaram.avi","amp;tr":["udp%3A%2F%2Ftracker.openbittorrent.com%3A80","udp%3A%2F%2Fopen.demonii.com%3A1337","udp%3A%2F%2Ftracker.coppersurfer.tk%3A6969","udp%3A%2F%2Fexodus.desync.com%3A6969"],"infoHash":"8ccdeeca6f9c7b16ddf80f24c103f0bcadd1c40a","infoHashBuffer":{"type":"Buffer","data":[140,205,238,202,111,156,123,22,221,248,15,36,193,3,240,188,173,209,196,10]},"announce":[],"urlList":[]}}